# xmcd
#
# Track frame offsets: 
#        150
#        12290
#        22547
#        34739
#        46140
#        55813
#        65390
#        74405
#        83909
#        94285
#        105182
#        115172
#        125466
#        134063
#        144198
#        152668
#        163497
#        174696
#        190619
#        201168
#        214371
#        221356
#        234628
#        246762
#        257334
#        267448
#
# Disc length: 3719 seconds
#
# Revision: 1
# Processed by: cddbd v1.5.1PL0 Copyright (c) Steve Scherf et al.
# Submitted via: ExactAudioCopy v0.90b4
#
DISCID=6d0e851a
DTITLE=Various Artist - The Journey: Destiny's Child - Vol. 4
DYEAR=1900
DGENRE=Country
TTITLE0=Beautiful Annabel Lee (1967)
TTITLE1=Woman, Let Me Sing You A Song (1967)
TTITLE2=In This Very Same Room (1967)
TTITLE3=She Called Me Baby (1967)
TTITLE4=The Everglades (1967)
TTITLE5=Sunset And Vine (1967)
TTITLE6=She's Gone, Gone, Gone (1967)
TTITLE7=Heartaches By The Number (1967)
TTITLE8=Busted (1967)
TTITLE9=Tiger By The Tail (1967)
TTITLE10=Heartaches For A Dime (1967)
TTITLE11=Foolin' 'Round (1967)
TTITLE12=Nashville Bum (1966)
TTITLE13=Tennessee (1966)
TTITLE14=Nashville Rebel (1966)
TTITLE15=Silver Ribbons (1966)
TTITLE16=Green River (1966)
TTITLE17=I'm A Long Way From Home (1966)
TTITLE18=You Beat All I Ever Saw (1967)
TTITLE19=Hoodlum (1966)
TTITLE20=Lang's Theme (1966)
TTITLE21=Lang's Mansion (1966)
TTITLE22=Spanish Penthouse (1966)
TTITLE23=Rush Street Blues (1966)
TTITLE24=Ruby, Don't Take Your Love To Town (1967)
TTITLE25=Born To Love You (1967)
EXTD=
EXTT0=
EXTT1=
EXTT2=
EXTT3=
EXTT4=
EXTT5=
EXTT6=
EXTT7=
EXTT8=
EXTT9=
EXTT10=
EXTT11=
EXTT12=
EXTT13=
EXTT14=
EXTT15=
EXTT16=
EXTT17=
EXTT18=
EXTT19=
EXTT20=
EXTT21=
EXTT22=
EXTT23=
EXTT24=
EXTT25=
PLAYORDER=
